# xmcd
#
# Track frame offsets:
#	150
#	8826
#	23676
#	33662
#	50944
#	64998
#
# Disc length: 1090 seconds
#
# Revision: 1
# Processed by: cddbd v1.5.2PL0 Copyright (c) Steve Scherf et al.
# Submitted via: EasyCDDAExtractor 12.0.0.1
#
DISCID=4e044006
DTITLE=Marco Vilane - Varal Diverso (Promo)
DYEAR=2009
DGENRE=MPB
TTITLE0=Truque de menino
TTITLE1=Dia de Feira
TTITLE2=Versa e Vice
TTITLE3=Fingido
TTITLE4=Criando asa
TTITLE5=Samba de Já ir
EXTD=
EXTT0=
EXTT1=
EXTT2=
EXTT3=
EXTT4=
EXTT5=
PLAYORDER=
